<svg xmlns="http://www.w3.org/2000/svg" version="1.1" xmlns:xlink="http://www.w3.org/1999/xlink" xmlns:svgjs="http://svgjs.com/svgjs" width="1440" height="560" preserveAspectRatio="none" viewBox="0 0 1440 560"><g mask="url(&quot;#SvgjsMask1002&quot;)" fill="none"><rect width="1440" height="560" x="0" y="0" fill="rgba(39, 76, 170, 1)"></rect><path d="M105 0C140.69 26.38 120.52 103.48 140 103.48C160.06 103.48 146.29 27.92 184.07 0C216.29 -23.82 232.03 0 280 0C350 0 350 0 420 0C490 0 490 0 560 0C630 0 630 0 700 0C770 0 770 0 840 0C910 0 910 0 980 0C1050 0 1050 0 1120 0C1190 0 1190 0 1260 0C1330 0 1330 0 1400 0C1470 0 1502.59 -32.59 1540 0C1572.59 28.38 1546.86 63.63 1540 121.94C1538.62 133.63 1523.53 128.52 1523.53 140C1523.53 188.46 1533.99 190.73 1540 241.82C1542.22 260.73 1540 260.91 1540 280C1540 350 1540 350 1540 420C1540 472.5 1552.24 477.7 1540 525C1534.12 547.7 1526.64 554.28 1503.76 560C1456.64 571.78 1451.88 560 1400 560C1330 560 1330 560 1260 560C1246 560 1245.45 563.47 1232 560C1175.45 545.41 1171.8 523.87 1120 523.87C1097.13 523.87 1106.19 553.93 1082.67 560C1036.19 572 1031.34 560 980 560C910 560 910 560 840 560C770 560 770 560 700 560C639.39 560 592.26 591.01 578.78 560C561.83 521.01 644.9 479.49 639.13 420C635.51 382.72 593.94 366.47 560 366.47C537.53 366.47 546.89 396.19 526.3 420C476.89 477.11 478.24 481.31 420 528.3C391.49 551.31 388.16 551.99 352.8 560C318.16 567.84 316.4 560 280 560C210 560 210 560 140 560C70 560 35 595 0 560C-35 525 0 490 0 420C0 386.06 -22.2 369.52 0 352.12C47.8 314.66 74.59 338.46 140 310.27C158.25 302.4 167.32 298.42 167.32 280C167.32 232.38 174.42 187.6 140 178.18C90.76 164.71 43.08 245.98 0 234.23C-26.92 226.89 0 187.12 0 140C0 70 -30 40 0 0C22.5 -30 70.69 -25.36 105 0" stroke="rgba(51, 121, 194, 0.58)" stroke-width="2"></path><path d="M560 120.56C545.59 120.56 534.55 127.67 534.55 140C534.55 159.97 542.47 185.16 560 185.16C585.63 185.16 620.87 157.53 620.87 140C620.87 125.23 588.75 120.56 560 120.56" stroke="rgba(42, 91, 215, 1)" stroke-width="2"></path><path d="M1260 11.67C1237.49 11.67 1195.83 87.82 1195.83 140C1195.83 165.26 1231.26 166.55 1260 166.55C1274.19 166.55 1281.69 156.15 1281.69 140C1281.69 78.71 1280.42 11.67 1260 11.67" stroke="rgba(42, 91, 215, 1)" stroke-width="2"></path><path d="M1400 275.48C1396.46 275.48 1394.29 277.43 1394.29 280C1394.29 283.19 1395.74 287 1400 287C1426.6 287 1456 282.89 1456 280C1456 277.13 1427.31 275.48 1400 275.48" stroke="rgba(51, 121, 194, 0.58)" stroke-width="2"></path><path d="M53.53 0C71 50.65 67.47 80.15 48.28 140C40.71 163.61 16.23 166.92 0 166.92C-7.91 166.92 0 153.46 0 140C0 70 -19.36 50.64 0 0C7.4 -19.36 46.86 -19.35 53.53 0" stroke="rgba(42, 91, 215, 1)" stroke-width="2"></path><path d="M211.89 140C221.78 68.82 220.86 57.62 248.89 0C254.91 -12.38 264.44 0 280 0C350 0 350 0 420 0C490 0 490 0 560 0C630 0 630 0 700 0C770 0 770 0 840 0C910 0 910 0 980 0C1050 0 1050 0 1120 0C1157.06 0 1194.12 -18.31 1194.12 0C1194.12 30.15 1160.42 51.66 1120 96.92C1097.91 121.66 1069.09 119.61 1069.09 140C1069.09 159.02 1091.89 162.95 1120 175.74C1187.35 206.4 1194.65 193.31 1260 226.9C1296.08 245.44 1294.66 250.27 1322.86 280C1364.66 324.07 1350.81 363.42 1400 374.5C1459.38 387.87 1496.76 314.84 1540 328.89C1566.76 337.59 1540 374.44 1540 420C1540 452.62 1554.61 458.81 1540 485.23C1515.9 528.81 1506.85 536.36 1462.59 560C1436.85 573.75 1431.3 560 1400 560C1356.39 560 1349.56 575.38 1312.79 560C1279.56 546.1 1291.12 525.06 1260 501.45C1198.85 455.06 1193.52 461.51 1128.24 420C1123.52 417 1123.82 416.52 1120 412.43C1058.45 346.52 1056.92 347.64 997.5 280C986.92 267.96 989.68 253.08 980 253.08C969.26 253.08 969.71 267.9 956.67 280C899.71 332.83 903.65 375.63 840 382.94C775.32 390.37 770.93 344.24 700 309.47C665.93 292.77 630 295.88 630 280C630 263.64 673.54 272 700 245C742.14 202 767.2 191.58 767.2 140C767.2 92.42 746.31 61.88 700 46.67C642.71 27.85 624.06 45.84 560 71.94C509.52 92.51 482 94.66 470.91 140C456.55 198.69 511.43 210.66 509.09 280C506.71 350.66 493.29 354.93 461.48 420C448.74 446.06 445.04 462.26 420 462.26C373.39 462.26 368.82 441.75 318.18 420C298.82 411.68 297.95 402.13 280 402.13C268.09 402.13 261.2 406.89 258.46 420C244.73 485.82 280.67 520.28 247.06 560C221.44 590.28 193.53 560 140 560C95.97 560 73.02 586.83 51.94 560C18.02 516.83 6.74 473.48 30 420C50.77 372.27 90.71 395.9 140 357.57C180.71 325.9 194.64 326.49 210 280C230.58 217.7 202.33 208.82 211.89 140" stroke="rgba(42, 91, 215, 1)" stroke-width="2"></path><path d="M1330.99 140C1305.65 77.15 1290.45 43.08 1311.69 0C1324.96 -26.92 1355.85 0 1400 0C1470 0 1492.31 -22.31 1540 0C1562.31 10.43 1553.37 37.92 1540 65.48C1519.4 107.92 1506.03 102.74 1472.06 140C1436.03 179.52 1435.61 219.03 1400 219.03C1365.07 219.03 1349.8 186.66 1330.99 140" stroke="rgba(42, 91, 215, 1)" stroke-width="2"></path><path d="M621.46 560C621.46 526.95 647.1 478.15 700 454.43C756.37 429.15 778.06 437.09 840 462C909.31 489.87 962.5 532.49 962.5 560C962.5 581.49 901.25 560 840 560C770 560 770 560 700 560C660.73 560 621.46 579.73 621.46 560" stroke="rgba(51, 121, 194, 0.58)" stroke-width="2"></path><path d="M2.06 0C2.06 3.56 0.52 8.75 0 8.75C-0.51 8.75 -0.83 3.54 0 0C0.2 -0.83 2.06 -0.82 2.06 0" stroke="rgba(51, 121, 194, 0.58)" stroke-width="2"></path><path d="M560 23.33C516.66 23.33 471.58 5.93 471.58 0C471.58 -5.73 515.79 0 560 0C587.1 0 614.19 -5.58 614.19 0C614.19 6.08 587.96 23.33 560 23.33" stroke="rgba(51, 121, 194, 0.58)" stroke-width="2"></path><path d="M1120 7.18C1113.81 7.18 1106 1.9 1106 0C1106 -1.69 1113 0 1120 0C1122.74 0 1125.49 -1.36 1125.49 0C1125.49 2.23 1123.56 7.18 1120 7.18" stroke="rgba(42, 91, 215, 1)" stroke-width="2"></path><path d="M1380.28 140C1366.08 72.98 1357.62 56.23 1365.54 0C1367.48 -13.77 1382.77 0 1400 0C1470 0 1474.24 -4.24 1540 0C1544.24 0.27 1542.89 5.64 1540 9.03C1483.19 75.64 1480.3 74.52 1420.59 140C1410.3 151.29 1410.17 162.58 1400 162.58C1390.02 162.58 1383.31 154.27 1380.28 140" stroke="rgba(42, 91, 215, 1)" stroke-width="2"></path><path d="M252.68 280C252.68 233 258.45 182.61 280 182.61C305.05 182.61 345.88 237.13 345.88 280C345.88 309.65 307.81 327.66 280 327.66C261.21 327.66 252.68 305.53 252.68 280" stroke="rgba(51, 121, 194, 0.58)" stroke-width="2"></path><path d="M1085 280C1085 264.06 1099.21 250.21 1120 250.21C1170.55 250.21 1227.69 263.27 1227.69 280C1227.69 297.09 1169.15 317.84 1120 317.84C1097.81 317.84 1085 297.88 1085 280" stroke="rgba(42, 91, 215, 1)" stroke-width="2"></path><path d="M113.33 420C116.17 406.07 126.55 404.86 140 404.86C154.24 404.86 165.11 405.43 168.72 420C184.32 483 189.7 505.05 178.43 560C175.34 575.05 159.22 560 140 560C124.19 560 110.85 572.89 108.39 560C97.51 502.89 100.36 483.64 113.33 420" stroke="rgba(51, 121, 194, 0.58)" stroke-width="2"></path><path d="M1231.18 420C1231.18 376.51 1240.71 322 1260 322C1280.91 322 1311.58 381.21 1311.58 420C1311.58 439.12 1284.8 437.82 1260 437.82C1244.6 437.82 1231.18 434.42 1231.18 420" stroke="rgba(51, 121, 194, 0.58)" stroke-width="2"></path><path d="M1460 420C1460 404.43 1511.55 384.44 1540 384.44C1551.55 384.44 1540 402.22 1540 420C1540 432.73 1549.31 445.45 1540 445.45C1509.31 445.45 1460 434.93 1460 420" stroke="rgba(42, 91, 215, 1)" stroke-width="2"></path><path d="M664.15 560C664.15 544.91 675.38 511.8 700 511.8C752.1 511.8 817.6 547.48 817.6 560C817.6 571.58 758.8 560 700 560C682.08 560 664.15 569.01 664.15 560" stroke="rgba(51, 121, 194, 0.58)" stroke-width="2"></path><path d="M1370.16 560C1370.16 533.61 1386.96 487.2 1400 487.2C1412.58 487.2 1421.41 531.61 1421.41 560C1421.41 568.01 1410.7 560 1400 560C1385.08 560 1370.16 570.01 1370.16 560" stroke="rgba(51, 121, 194, 0.58)" stroke-width="2"></path></g><defs><mask id="SvgjsMask1002"><rect width="1440" height="560" fill="#ffffff"></rect></mask></defs></svg>