<?xml version="1.0" standalone="no"?><svg xmlns="http://www.w3.org/2000/svg" viewBox="0 0 1440 320"><path fill="#2a5bd7" fill-opacity="0.88" d="M0,224L40,224C80,224,160,224,240,208C320,192,400,160,480,170.7C560,181,640,235,720,245.3C800,256,880,224,960,176C1040,128,1120,64,1200,42.7C1280,21,1360,43,1400,53.3L1440,64L1440,320L1400,320C1360,320,1280,320,1200,320C1120,320,1040,320,960,320C880,320,800,320,720,320C640,320,560,320,480,320C400,320,320,320,240,320C160,320,80,320,40,320L0,320Z"></path></svg>